
  <svg
    width="1000"
    height="1000"
    viewBox="0 0 1000 1000"
    xmlns="http://www.w3.org/2000/svg"
  >
    <defs>
      
      
      <linearGradient id="linearGradientId" gradientTransform="rotate(-45 0.5 0.5)">
      <stop offset="0%"  stop-color="#FFE53B" />
			<stop offset="100%"  stop-color="#FF2525" />
    </linearGradient>
      
      
      
      
      <clipPath id="shape">
        <path fill="currentColor" d="M768.5,635.5Q716,771,558,854.5Q400,938,288.5,797Q177,656,170.5,497Q164,338,298.5,272.5Q433,207,565,230.5Q697,254,759,377Q821,500,768.5,635.5Z"></path>
      </clipPath>
    </defs>
  
    

    <g  clip-path="url(#shape)">
      <path fill="url(#linearGradientId)" d="M768.5,635.5Q716,771,558,854.5Q400,938,288.5,797Q177,656,170.5,497Q164,338,298.5,272.5Q433,207,565,230.5Q697,254,759,377Q821,500,768.5,635.5Z" />
    </g>

    
  
  </svg>